<?xml version="1.0" standalone="no"?>
<!DOCTYPE svg PUBLIC "-//W3C//DTD SVG 20010904//EN"
 "http://www.w3.org/TR/2001/REC-SVG-20010904/DTD/svg10.dtd">
<svg version="1.0" xmlns="http://www.w3.org/2000/svg"
 width="600.000000pt" height="161.000000pt" viewBox="0 0 600.000000 161.000000"
 preserveAspectRatio="xMidYMid meet">
<g transform="translate(0.000000,161.000000) scale(0.100000,-0.100000)"
fill="#000000" stroke="none">
<path d="M4123 1191 c-71 -33 -93 -108 -50 -172 12 -19 51 -53 87 -76 156
-100 174 -119 172 -181 -2 -54 -47 -92 -108 -92 -77 0 -101 19 -138 113 -24
59 -77 62 -62 3 17 -67 114 -136 191 -136 157 0 223 170 105 268 -8 7 -44 29
-80 49 -101 58 -140 98 -140 142 0 54 32 81 96 81 57 -1 71 -9 107 -67 29 -46
38 -51 56 -29 10 11 5 22 -20 51 -57 65 -136 82 -216 46z m37 -213 c0 -12 -31
6 -52 31 -28 33 -21 35 17 5 19 -14 35 -30 35 -36z m31 -15 c13 -16 12 -17 -3
-4 -10 7 -18 15 -18 17 0 8 8 3 21 -13z m34 -12 c3 -5 1 -12 -5 -16 -5 -3 -10
1 -10 9 0 18 6 21 15 7z m86 -59 c44 -38 46 -57 3 -23 -15 11 -23 21 -18 21 4
0 -1 6 -11 14 -11 8 -25 12 -31 9 -7 -2 -15 0 -18 6 -15 23 39 4 75 -27z"/>
<path d="M925 931 l0 -271 104 0 c125 0 198 18 262 65 68 49 94 108 94 210 -1
93 -21 142 -80 193 -61 55 -97 65 -245 70 l-135 4 0 -271z m241 244 c87 -25
143 -104 152 -212 6 -77 -10 -143 -48 -198 -40 -58 -97 -83 -197 -87 l-78 -3
-3 258 -2 257 63 0 c35 0 86 -7 113 -15z m-203 -52 c-3 -21 -7 -40 -10 -43 -5
-6 -1 61 5 73 8 16 10 5 5 -30z m368 -60 c13 -16 12 -17 -3 -4 -17 13 -22 21
-14 21 2 0 10 -8 17 -17z m10 -50 c-12 -20 -14 -14 -5 12 4 9 9 14 11 11 3 -2
0 -13 -6 -23z m18 -38 c2 -24 2 -44 0 -92 -1 -13 -5 -21 -9 -18 -7 4 -7 110
-1 133 3 10 9 -2 10 -23z m-12 -147 c-3 -8 -6 -5 -6 6 -1 11 2 17 5 13 3 -3 4
-12 1 -19z m-390 -40 c-3 -8 -6 -5 -6 6 -1 11 2 17 5 13 3 -3 4 -12 1 -19z
m13 -69 c0 -5 -4 -9 -8 -9 -5 0 -9 7 -9 15 0 8 4 12 9 9 4 -3 8 -9 8 -15z m-5
-29 c3 -5 1 -10 -4 -10 -6 0 -11 5 -11 10 0 6 2 10 4 10 3 0 8 -4 11 -10z"/>
<path d="M758 1116 c-8 -95 -65 -209 -155 -307 -51 -55 -59 -67 -33 -49 56 39
153 140 195 202 34 53 37 62 32 106 -3 27 -12 64 -20 83 l-14 34 -5 -69z"/>
<path d="M1852 1157 c-38 -22 -55 -57 -56 -114 -1 -51 -2 -53 -28 -53 -16 0
-28 -5 -28 -11 0 -6 12 -9 26 -7 l26 3 -1 -157 -2 -158 29 0 29 0 -1 158 -1
157 48 -3 c29 -3 47 0 47 7 0 7 -21 11 -50 11 l-50 0 0 65 c0 52 4 69 20 85
26 26 39 25 85 -6 40 -27 70 -28 70 -4 0 32 -118 51 -163 27z"/>
<path d="M3579 1045 c0 -66 0 -157 1 -202 1 -98 -15 -138 -65 -159 -101 -42
-173 115 -109 238 27 51 85 63 135 27 16 -11 29 -16 29 -10 0 17 -60 53 -98
58 -78 9 -142 -68 -142 -172 0 -128 96 -209 190 -160 16 8 36 28 44 43 l15 27
1 -37 c0 -36 1 -38 34 -38 l34 0 -10 36 c-5 21 -8 128 -6 254 l3 217 -27 -1
-28 -1 -1 -120z"/>
<path d="M4143 1125 c0 -8 4 -12 9 -9 5 3 6 10 3 15 -9 13 -12 11 -12 -6z"/>
<path d="M651 1116 c-9 -11 -9 -16 1 -22 7 -4 10 -4 6 1 -4 4 -3 14 3 22 6 7
9 13 6 13 -2 0 -10 -6 -16 -14z"/>
<path d="M1720 1127 c0 -2 6 -10 14 -16 11 -9 16 -9 22 1 4 7 4 10 -1 6 -4 -4
-14 -3 -22 3 -7 6 -13 9 -13 6z"/>
<path d="M1605 1111 c-3 -5 -2 -12 3 -15 5 -3 9 1 9 9 0 17 -3 19 -12 6z"/>
<path d="M1664 1099 c-17 -19 -17 -21 2 -40 20 -20 20 -20 38 0 17 19 17 20
-2 39 -20 20 -21 20 -38 1z"/>
<path d="M2030 1071 c0 -53 -17 -81 -51 -81 -10 0 -19 -5 -19 -11 0 -7 11 -8
30 -4 l30 7 0 -142 c0 -136 1 -142 25 -165 44 -45 112 -23 139 45 18 46 21 74
6 65 -5 -3 -10 -17 -10 -29 0 -30 -36 -76 -59 -76 -10 0 -25 8 -34 18 -14 15
-17 42 -17 148 l0 129 52 -1 53 -2 28 -73 c15 -41 39 -111 53 -156 24 -73 30
-83 50 -83 13 0 24 5 24 12 0 17 51 182 59 191 4 4 13 -16 19 -44 30 -131 42
-159 66 -159 21 0 28 14 70 138 46 137 55 185 36 197 -21 13 -40 -15 -29 -41
14 -39 11 -62 -24 -162 l-33 -93 -33 120 c-19 66 -33 131 -33 145 0 23 -4 26
-38 26 l-38 0 16 -44 c16 -43 15 -47 -15 -141 l-30 -98 -42 124 c-22 68 -41
132 -41 142 0 15 -11 17 -85 17 l-85 0 0 65 c0 58 -2 65 -20 65 -17 0 -20 -7
-20 -49z"/>
<path d="M4440 1071 c0 -54 -17 -81 -51 -81 -11 0 -17 -5 -14 -10 3 -6 17 -7
31 -4 l24 6 0 -138 c0 -159 9 -180 72 -190 32 -6 41 -2 68 24 16 17 30 37 30
45 0 10 12 3 33 -18 59 -59 143 -69 214 -25 41 25 61 56 71 111 15 84 -12 145
-84 186 -124 71 -281 -49 -246 -188 19 -75 -47 -142 -90 -89 -15 19 -18 41
-18 149 l0 128 55 -5 c37 -3 55 -1 55 7 0 7 -21 11 -55 11 l-55 0 0 65 c0 58
-2 65 -20 65 -17 0 -20 -7 -20 -49z m379 -105 c19 -12 39 -59 46 -108 9 -59
-16 -151 -47 -173 -35 -24 -104 -20 -133 9 -69 69 -52 247 27 280 29 13 80 9
107 -8z"/>
<path d="M658 1053 c-16 -16 -28 -38 -28 -50 0 -44 -37 -131 -88 -208 l-53
-80 50 55 c63 69 117 160 137 228 22 74 16 91 -18 55z"/>
<path d="M5250 1045 c0 -7 30 -13 34 -7 3 4 -4 9 -15 9 -10 1 -19 0 -19 -2z"/>
<path d="M2629 1028 c-5 -18 -6 -38 -1 -34 7 8 12 36 6 36 -2 0 -4 -1 -5 -2z"/>
<path d="M1573 989 c-17 -5 -45 -25 -60 -44 l-28 -34 3 39 c4 38 3 40 -24 40
l-29 0 0 -165 0 -165 27 0 28 0 0 118 c0 113 1 120 25 142 13 13 42 26 62 29
29 5 39 11 41 29 4 24 2 25 -45 11z"/>
<path d="M2680 977 c-103 -54 -120 -198 -34 -279 57 -53 125 -62 194 -25 118
62 118 243 1 304 -56 29 -106 29 -161 0z m148 -19 c30 -33 42 -71 42 -133 0
-103 -37 -155 -110 -155 -73 0 -110 52 -110 155 0 103 37 155 110 155 35 0 52
-5 68 -22z"/>
<path d="M3053 979 c-99 -49 -121 -181 -45 -271 51 -60 129 -74 202 -35 118
62 118 245 0 305 -55 28 -103 28 -157 1z m141 -18 c63 -53 62 -218 -2 -274
-27 -25 -96 -25 -124 -1 -64 57 -65 220 -2 276 34 29 93 29 128 -1z"/>
<path d="M5100 989 c-14 -6 -38 -22 -54 -37 l-28 -27 7 33 c6 31 5 32 -24 32
l-31 0 0 -165 0 -165 29 0 28 0 -5 120 -5 119 36 36 c55 55 117 45 133 -22 4
-14 4 -77 1 -139 l-5 -114 29 0 29 0 0 125 c0 142 -13 189 -55 205 -32 12 -52
12 -85 -1z"/>
<path d="M5375 986 c-125 -56 -129 -251 -5 -313 24 -13 55 -23 68 -23 56 0
128 58 147 118 11 37 -10 25 -24 -14 -15 -42 -62 -74 -109 -74 -43 0 -95 50
-111 105 -21 78 -26 75 114 75 l125 0 -6 28 c-22 87 -117 135 -199 98z m84 -7
c31 -11 61 -52 61 -84 0 -12 -16 -15 -95 -15 l-95 0 11 27 c13 34 38 63 64 74
11 4 20 8 21 8 1 1 15 -4 33 -10z"/>
<path d="M523 965 c-28 -23 -32 -33 -38 -93 -4 -37 -13 -95 -21 -130 -19 -87
-18 -87 22 -2 35 73 79 220 72 240 -2 5 -17 -2 -35 -15z m-2 -58 c-10 -9 -11
-8 -5 6 3 10 9 15 12 12 3 -3 0 -11 -7 -18z"/>
<path d="M1655 825 l0 -165 27 0 27 0 3 165 3 165 -30 0 -30 0 0 -165z"/>
<path d="M3779 945 c-56 -30 -39 -96 51 -197 27 -31 50 -59 50 -62 0 -9 -68
-18 -89 -11 -58 18 -79 87 -39 125 25 23 12 27 -19 5 -30 -21 -39 -69 -18
-101 31 -48 120 -66 161 -33 7 5 24 3 43 -7 29 -15 34 -14 57 1 14 9 23 19 20
22 -3 3 -13 0 -21 -7 -12 -10 -21 -10 -41 -2 -21 10 -23 15 -13 33 25 48 28
76 8 108 -29 48 -68 38 -55 -14 4 -15 16 -27 31 -31 21 -5 24 -11 19 -28 -9
-30 -23 -43 -32 -30 -4 6 -25 32 -47 59 -28 34 -36 50 -26 53 25 8 51 42 51
65 0 49 -47 76 -91 52z m65 -21 c11 -29 6 -50 -18 -73 l-24 -22 -16 22 c-19
28 -21 60 -4 77 17 17 55 15 62 -4z m86 -134 c0 -14 -38 1 -44 17 -11 28 6 37
26 14 10 -13 18 -27 18 -31z"/>
<path d="M762 850 c-24 -21 -94 -68 -157 -105 -63 -36 -117 -71 -121 -77 -3
-5 7 -3 22 5 16 8 76 31 134 52 136 48 145 54 159 111 7 25 11 48 9 49 -2 2
-22 -14 -46 -35z m-2 -44 c0 -2 -8 -10 -17 -17 -16 -13 -17 -12 -4 4 13 16 21
21 21 13z"/>
<path d="M428 844 c-13 -20 -19 -118 -10 -149 8 -27 10 -24 16 35 9 72 5 131
-6 114z"/>
<path d="M4243 825 c0 -8 4 -12 9 -9 5 3 6 10 3 15 -9 13 -12 11 -12 -6z"/>
<path d="M5525 801 c-3 -5 -2 -12 3 -15 5 -3 9 1 9 9 0 17 -3 19 -12 6z"/>
<path d="M615 674 c-134 -22 -144 -33 -33 -33 89 -1 99 1 125 24 34 29 29 30
-92 9z"/>
<path d="M454 619 c10 -6 48 -13 85 -16 90 -6 59 14 -35 22 -55 5 -65 4 -50
-6z"/>
<path d="M2986 552 c-3 -5 1 -9 9 -9 8 0 12 4 9 9 -3 4 -7 8 -9 8 -2 0 -6 -4
-9 -8z"/>
<path d="M3896 552 c-3 -5 1 -9 9 -9 8 0 12 4 9 9 -3 4 -7 8 -9 8 -2 0 -6 -4
-9 -8z"/>
<path d="M3950 541 c0 -6 4 -13 10 -16 6 -3 7 1 4 9 -7 18 -14 21 -14 7z"/>
<path d="M1491 448 c1 -29 4 -43 6 -30 2 12 10 22 17 22 8 0 19 7 26 15 16 19
-3 45 -31 45 -16 0 -19 -7 -18 -52z m37 20 c-6 -18 -28 -21 -28 -4 0 9 7 16
16 16 9 0 14 -5 12 -12z"/>
<path d="M1623 450 c-1 -27 3 -50 8 -50 5 0 9 10 10 23 l0 22 16 -22 c21 -31
40 -30 20 1 -11 16 -13 26 -5 34 16 16 1 42 -25 42 -22 0 -24 -4 -24 -50z m45
18 c-6 -18 -28 -21 -28 -4 0 9 7 16 16 16 9 0 14 -5 12 -12z"/>
<path d="M1775 450 c0 -47 2 -50 25 -50 18 0 21 3 11 9 -10 6 -12 21 -8 50 4
34 2 41 -12 41 -13 0 -16 -10 -16 -50z"/>
<path d="M1890 497 c0 -15 34 -97 40 -97 4 0 15 21 24 47 19 55 19 53 6 53 -5
0 -12 -16 -16 -35 -3 -19 -10 -35 -14 -35 -4 0 -11 16 -14 35 -4 19 -11 35
-16 35 -6 0 -10 -1 -10 -3z"/>
<path d="M2052 468 c-6 -18 -13 -41 -17 -50 -4 -11 -3 -18 4 -18 6 0 11 7 11
15 0 8 9 15 20 15 11 0 20 -7 20 -15 0 -8 4 -15 9 -15 5 0 2 23 -7 50 -9 28
-19 50 -23 50 -5 0 -12 -15 -17 -32z m28 -13 c0 -8 -4 -15 -10 -15 -5 0 -10 7
-10 15 0 8 5 15 10 15 6 0 10 -7 10 -15z"/>
<path d="M2160 489 c0 -6 7 -9 15 -5 12 4 15 -4 15 -39 0 -25 5 -45 10 -45 6
0 10 21 10 46 0 25 4 43 9 39 5 -3 12 -1 16 5 4 6 -9 10 -34 10 -23 0 -41 -5
-41 -11z"/>
<path d="M2300 450 c0 -48 1 -50 28 -49 16 1 20 3 10 6 -10 2 -18 14 -18 25 0
14 5 18 15 14 8 -3 15 -1 15 4 0 6 -7 10 -15 10 -8 0 -15 5 -15 10 0 6 7 10
15 10 8 0 15 5 15 10 0 6 -11 10 -25 10 -23 0 -25 -3 -25 -50z"/>
<path d="M2550 450 l0 -50 33 1 c23 1 26 3 10 6 -15 3 -23 12 -23 25 0 14 5
18 15 14 8 -3 15 -1 15 4 0 6 -7 10 -15 10 -8 0 -15 5 -15 10 0 6 7 10 15 10
8 0 15 5 15 10 0 6 -11 10 -25 10 -23 0 -25 -3 -25 -50z"/>
<path d="M2693 483 c-4 -11 1 -22 15 -31 28 -19 30 -46 2 -39 -11 3 -20 1 -20
-4 0 -15 37 -10 51 7 12 14 10 19 -15 39 -18 14 -24 25 -17 29 6 4 16 4 21 1
6 -3 10 -1 10 4 0 18 -40 12 -47 -6z"/>
<path d="M2820 489 c0 -6 7 -9 14 -6 12 5 16 -5 19 -41 l3 -47 2 47 c2 38 5
46 17 42 8 -4 15 -1 15 5 0 6 -16 11 -35 11 -19 0 -35 -5 -35 -11z"/>
<path d="M2980 476 c-5 -15 -12 -39 -16 -54 -5 -25 -4 -25 9 -9 18 21 33 22
41 1 13 -33 18 -4 6 33 -17 53 -28 61 -40 29z m17 -28 c-3 -8 -6 -5 -6 6 -1
11 2 17 5 13 3 -3 4 -12 1 -19z"/>
<path d="M3100 490 c0 -5 6 -10 14 -10 10 0 16 -14 19 -42 l4 -43 1 47 c2 38
5 46 17 42 8 -4 15 -1 15 5 0 6 -16 11 -35 11 -19 0 -35 -4 -35 -10z"/>
<path d="M3250 450 c0 -48 1 -50 28 -49 23 2 24 2 5 6 -14 3 -23 12 -23 23 0
11 9 20 23 23 l22 4 -22 2 c-28 1 -31 21 -3 21 11 0 20 5 20 10 0 6 -11 10
-25 10 -23 0 -25 -3 -25 -50z"/>
<path d="M3493 483 c-4 -11 1 -22 15 -31 28 -19 30 -46 2 -39 -11 3 -20 1 -20
-4 0 -14 36 -10 50 6 10 12 7 19 -15 39 -16 15 -22 27 -15 31 5 3 15 3 20 0 6
-3 10 -1 10 4 0 18 -40 12 -47 -6z"/>
<path d="M3630 450 c0 -48 1 -50 28 -49 16 1 20 3 10 6 -10 2 -18 14 -18 25 0
14 5 18 15 14 8 -3 15 -1 15 4 0 5 -10 11 -22 13 l-23 4 23 8 c30 10 28 25 -3
25 -23 0 -25 -3 -25 -50z"/>
<path d="M3771 448 c1 -29 4 -43 6 -30 5 28 14 28 31 1 7 -12 16 -18 19 -15 3
3 0 12 -7 21 -10 12 -10 18 0 30 16 19 -3 45 -31 45 -16 0 -19 -7 -18 -52z
m36 19 c-6 -20 -27 -19 -27 2 0 14 5 19 15 14 9 -3 14 -10 12 -16z"/>
<path d="M3904 478 c10 -45 25 -78 34 -78 4 0 15 23 24 50 9 28 12 50 7 50 -4
0 -14 -19 -20 -42 l-12 -43 -11 37 c-13 43 -32 65 -22 26z"/>
<path d="M4050 490 c0 -5 5 -10 10 -10 15 0 12 -67 -2 -73 -7 -3 1 -5 17 -5
17 0 24 2 18 5 -15 6 -18 73 -3 73 6 0 10 5 10 10 0 6 -11 10 -25 10 -14 0
-25 -4 -25 -10z"/>
<path d="M4190 481 c-13 -26 -13 -54 2 -69 14 -14 58 -16 58 -2 0 5 -10 9 -22
7 -20 -2 -23 3 -23 33 0 31 3 35 23 33 13 -2 21 1 17 7 -10 17 -44 11 -55 -9z"/>
<path d="M4327 493 c-2 -5 -5 -27 -6 -50 -1 -42 0 -43 32 -42 23 1 26 3 10 6
-15 3 -23 12 -23 25 0 14 5 18 15 14 8 -3 15 -1 15 4 0 6 -7 10 -15 10 -8 0
-15 5 -15 10 0 6 6 10 14 10 8 0 18 5 21 10 3 6 -5 10 -19 10 -14 0 -27 -3
-29 -7z"/>
<path d="M4463 483 c-4 -10 2 -23 16 -34 23 -19 20 -44 -5 -35 -8 3 -14 1 -14
-5 0 -6 10 -9 23 -7 30 4 35 43 7 58 -22 12 -17 35 6 26 8 -3 14 -1 14 4 0 17
-40 11 -47 -7z"/>
<path d="M1486 359 c2 -4 -2 -10 -8 -12 -8 -4 -9 -6 -2 -6 6 -1 17 5 23 12 8
10 7 14 -4 14 -8 0 -12 -4 -9 -8z"/>
<path d="M1607 349 c7 -7 15 -10 18 -7 3 3 -2 9 -12 12 -14 6 -15 5 -6 -5z"/>
</g>
</svg>
